<svg width="31" height="31" viewBox="0 0 31 31" fill="none" xmlns="http://www.w3.org/2000/svg">
<g clip-path="url(#clip0_111_8)">
<path fill-rule="evenodd" clip-rule="evenodd" d="M10.2578 10.7915C9.79891 10.7915 9.41504 11.1686 9.41504 11.6499V19.692C9.41504 20.1733 9.79891 20.5504 10.2578 20.5504H20.6109C21.0698 20.5504 21.4537 20.1733 21.4537 19.692V11.6499C21.4537 11.1686 21.0698 10.7915 20.6109 10.7915H10.2578ZM7.91504 11.6499C7.91504 10.354 8.9567 9.2915 10.2578 9.2915H20.6109C21.912 9.2915 22.9537 10.354 22.9537 11.6499V19.692C22.9537 20.9879 21.912 22.0504 20.6109 22.0504H10.2578C8.9567 22.0504 7.91504 20.9879 7.91504 19.692V11.6499Z" fill="#14171C"/>
<path fill-rule="evenodd" clip-rule="evenodd" d="M8.28223 12.2948L9.04828 11.0051L15.4346 14.7986L21.8209 11.0051L22.5869 12.2948L15.4346 16.5433L8.28223 12.2948Z" fill="#14171C"/>
</g>
<defs>
<clipPath id="clip0_111_8">
<rect width="15" height="13" fill="white" transform="translate(8 9)"/>
</clipPath>
</defs>
</svg>
