<svg width="19" height="13" viewBox="0 0 19 13" fill="none" xmlns="http://www.w3.org/2000/svg">
<path fill-rule="evenodd" clip-rule="evenodd" d="M0.0644531 1.34677C0.0644531 0.932558 0.40024 0.596771 0.814453 0.596771H18.1854C18.5996 0.596771 18.9354 0.932558 18.9354 1.34677C18.9354 1.76098 18.5996 2.09677 18.1854 2.09677H0.814453C0.40024 2.09677 0.0644531 1.76098 0.0644531 1.34677Z" fill="black"/>
<path fill-rule="evenodd" clip-rule="evenodd" d="M0.0644531 6.37903C0.0644531 5.96481 0.40024 5.62903 0.814453 5.62903H18.1854C18.5996 5.62903 18.9354 5.96481 18.9354 6.37903C18.9354 6.79324 18.5996 7.12903 18.1854 7.12903H0.814453C0.40024 7.12903 0.0644531 6.79324 0.0644531 6.37903Z" fill="black"/>
<path fill-rule="evenodd" clip-rule="evenodd" d="M0.0644531 11.4113C0.0644531 10.9971 0.40024 10.6613 0.814453 10.6613H18.1854C18.5996 10.6613 18.9354 10.9971 18.9354 11.4113C18.9354 11.8255 18.5996 12.1613 18.1854 12.1613H0.814453C0.40024 12.1613 0.0644531 11.8255 0.0644531 11.4113Z" fill="black"/>
</svg>
